<?xml version="1.0" encoding="UTF-8"?>
<svg id="Layer_1" xmlns="http://www.w3.org/2000/svg" version="1.1" viewBox="0 0 3005.8 595.6">
  <!-- Generator: Adobe Illustrator 30.0.0, SVG Export Plug-In . SVG Version: 2.1.1 Build 123)  -->
  <defs>
    <style>
      .st0 {
        fill: #e0e0e0;
      }

      .st1 {
        fill: #f4f4f4;
      }

      .st2 {
        fill: #c1c1c1;
      }

      .st3 {
        fill: #fff;
      }

      .st4 {
        fill: #d3d3d3;
      }
    </style>
  </defs>
  <g>
    <path class="st3" d="M173.6,0h27.2c95.4,0,172.8,77.4,172.8,172.8v274.8H82.4c-45.5,0-82.4-36.9-82.4-82.4v-191.6C0,77.8,77.8,0,173.6,0Z"/>
    <path class="st1" d="M920.8,0h27.2c95.4,0,172.8,77.4,172.8,172.8v274.8h-373.6V173.6c0-95.8,77.8-173.6,173.6-173.6Z"/>
    <path class="st0" d="M547.2,0h27.2c95.4,0,172.8,77.4,172.8,172.8v274.8h-373.6V173.6C373.6,77.8,451.4,0,547.2,0Z"/>
    <path class="st4" d="M1308,0h0c102.9,0,186.4,83.5,186.4,186.4v188.1c0,40.3-32.7,73.1-73.1,73.1h-287c-7.5,0-13.6-6.1-13.6-13.6v-246.8c0-103.3,84-187.2,187.3-187.2Z"/>
    <path class="st4" d="M360.4,148h27.2c95.4,0,172.8,77.4,172.8,172.8v274.8h-295c-43.4,0-78.6-35.2-78.6-78.6v-195.4c0-95.8,77.8-173.6,173.6-173.6h0Z"/>
    <path class="st0" d="M1121.2,148h0c102.9,0,186.4,83.5,186.4,186.4v186.7c0,41.1-33.4,74.5-74.5,74.5h-285.6c-7.5,0-13.6-6.1-13.6-13.6v-246.8c0-103.3,83.9-187.2,187.2-187.2h0Z"/>
    <path class="st2" d="M734,148h27.2c95.4,0,172.8,77.4,172.8,172.8v274.8h-373.6v-274c0-95.8,77.8-173.6,173.6-173.6h0Z"/>
    <path class="st3" d="M747.2,148h10.9c97.1,0,175.9,78.8,175.9,175.9v271.7h-186.8V148h0Z"/>
  </g>
  <g>
    <path class="st3" d="M1673.9,187.7v80.9h-29.1V52.4h63.8c13.7,0,25.6,1.6,35.7,4.8,10.1,3.2,18.5,7.7,25.1,13.5,6.6,5.8,11.6,12.9,14.9,21.1,3.3,8.2,4.9,17.5,4.9,27.6s-1.8,19.3-5.3,27.6c-3.5,8.3-8.7,15.5-15.5,21.6-6.8,6-15.2,10.7-25.2,14.1-10,3.4-21.6,5.1-34.6,5.1h-34.7ZM1673.9,164.5h34.7c8.3,0,15.7-1.1,22.1-3.3,6.4-2.2,11.8-5.3,16.1-9.3,4.4-4,7.7-8.7,9.9-14.3,2.2-5.5,3.3-11.6,3.3-18.3,0-13.8-4.2-24.5-12.7-32.3-8.5-7.7-21.4-11.6-38.7-11.6h-34.7v89Z"/>
    <path class="st3" d="M1855.1,178.4v90.2h-29.1V52.4h61.1c13.7,0,25.5,1.4,35.5,4.1,10,2.8,18.2,6.8,24.7,12,6.5,5.2,11.3,11.5,14.4,18.9,3.1,7.4,4.7,15.7,4.7,24.8s-1.2,14.8-3.6,21.4c-2.4,6.6-5.9,12.6-10.5,17.9-4.6,5.3-10.2,9.8-16.7,13.6-6.6,3.8-14.1,6.6-22.4,8.4,3.8,2.4,7,5.5,9.7,9.2l63.1,85.8h-25.9c-5.3,0-9.3-2.1-11.8-6.2l-56.1-77.2c-1.7-2.4-3.5-4.1-5.5-5.2-2-1.1-5-1.6-9.1-1.6h-22.2ZM1855.1,157.1h30.8c8.4,0,15.9-1,22.4-3.1,6.5-2.1,11.9-5,16.3-8.8,4.4-3.8,7.7-8.3,9.9-13.5,2.2-5.2,3.3-11,3.3-17.4,0-12.9-4.2-22.6-12.7-29.1-8.4-6.5-21.1-9.8-38-9.8h-32v81.6Z"/>
    <path class="st3" d="M2148.2,52.4v23.8h-103.9v71.8h84.2v22.9h-84.2v73.8h104.1l-.2,23.8h-133.2V52.4h133.2Z"/>
    <path class="st3" d="M2299.9,86.2c-.9,1.5-1.9,2.6-2.9,3.4-1.1.8-2.3,1.1-3.8,1.1s-3.7-.9-6-2.6c-2.3-1.7-5.2-3.6-8.7-5.7-3.5-2.1-7.6-3.9-12.5-5.7-4.9-1.7-10.8-2.6-17.7-2.6s-12.3.9-17.3,2.6c-5,1.8-9.2,4.1-12.5,7.2-3.4,3-5.9,6.6-7.6,10.6-1.7,4.1-2.6,8.5-2.6,13.2s1.5,11,4.5,15c3,4,6.9,7.4,11.8,10.2,4.9,2.8,10.4,5.3,16.6,7.3,6.2,2.1,12.5,4.2,19,6.4,6.5,2.2,12.8,4.7,19,7.5,6.2,2.8,11.7,6.3,16.6,10.5,4.9,4.2,8.8,9.4,11.8,15.5,3,6.1,4.5,13.7,4.5,22.6s-1.6,18.3-4.8,26.6c-3.2,8.3-7.9,15.5-14.1,21.6-6.2,6.1-13.8,11-22.8,14.5-9,3.5-19.2,5.3-30.7,5.3s-26.9-2.5-38.3-7.6c-11.5-5.1-21.3-11.9-29.4-20.6l8.4-13.9c.8-1.1,1.8-2,2.9-2.8,1.2-.8,2.4-1.1,3.8-1.1s2.8.5,4.5,1.6c1.7,1.1,3.5,2.4,5.7,4,2.1,1.6,4.5,3.4,7.2,5.3,2.7,1.9,5.8,3.7,9.3,5.3,3.5,1.6,7.4,2.9,11.8,4,4.4,1.1,9.4,1.6,14.9,1.6s13.1-1,18.6-2.9c5.4-1.9,10-4.6,13.8-8.1,3.8-3.5,6.7-7.6,8.7-12.4,2-4.8,3-10.2,3-16.1s-1.5-11.9-4.5-16.1c-3-4.2-6.9-7.7-11.7-10.5-4.8-2.8-10.4-5.2-16.6-7.2-6.2-2-12.6-4-19-6-6.4-2.1-12.8-4.5-19-7.2-6.2-2.7-11.8-6.2-16.6-10.6-4.8-4.3-8.7-9.7-11.7-16.2-3-6.5-4.5-14.5-4.5-24.1s1.5-15,4.5-22.2c3-7.1,7.3-13.5,13-19,5.7-5.5,12.7-10,21-13.3,8.3-3.3,17.8-5,28.6-5s23.1,1.9,33,5.7c9.9,3.8,18.6,9.4,26.2,16.6l-7.1,13.9Z"/>
    <path class="st3" d="M2499.2,52.4v24.6h-70v191.6h-29.1V77h-70.2v-24.6h169.3Z"/>
    <path class="st3" d="M2560.4,268.6h-29.3V52.4h29.3v216.2Z"/>
    <path class="st3" d="M2756.5,265.2c-12.3,3.9-25.8,5.8-40.5,5.8s-33.1-2.7-47.1-8.1c-14-5.4-25.9-12.9-35.8-22.6-9.9-9.7-17.5-21.3-22.9-34.9-5.3-13.6-8-28.5-8-44.8s2.6-31.5,7.8-45.1c5.2-13.6,12.5-25.2,22.1-34.9,9.6-9.7,21.2-17.2,34.9-22.6,13.7-5.3,29-8,45.9-8s16.5.6,23.8,1.9c7.3,1.3,14.1,3.1,20.4,5.4,6.2,2.4,12,5.2,17.4,8.6,5.3,3.4,10.3,7.2,14.9,11.4l-8.3,13.3c-1.3,2-3,3.3-5.1,3.8-2.1.6-4.4,0-6.9-1.4-2.4-1.4-5.2-3.1-8.3-5.1-3.1-2-6.9-3.9-11.4-5.8-4.5-1.9-9.8-3.4-15.8-4.8-6.1-1.3-13.3-2-21.6-2-12.2,0-23.2,2-33,6-9.9,4-18.3,9.7-25.2,17-6.9,7.4-12.3,16.3-16,26.9-3.7,10.5-5.6,22.3-5.6,35.4s1.9,25.7,5.8,36.4c3.9,10.7,9.4,19.8,16.6,27.3,7.2,7.5,15.9,13.2,26.2,17.1,10.3,3.9,21.8,5.9,34.5,5.9s9.7-.3,14.1-.9c4.4-.6,8.6-1.4,12.6-2.5,4-1.1,7.9-2.4,11.6-3.9,3.7-1.6,7.5-3.3,11.3-5.4v-47.7h-33.6c-1.9,0-3.4-.6-4.6-1.7-1.2-1.1-1.7-2.5-1.7-4.1v-16.6h66.4v83c-10.9,7.8-22.5,13.7-34.8,17.6Z"/>
    <path class="st3" d="M2969.3,52.4v23.8h-103.9v71.8h84.2v22.9h-84.2v73.8h104.1l-.2,23.8h-133.2V52.4h133.2Z"/>
    <path class="st3" d="M1796.6,498.5c1.6,0,3,.7,4.2,2l11.6,12.5c-8.9,10.3-19.6,18.3-32.2,24-12.6,5.7-27.9,8.6-45.8,8.6s-29.6-2.7-42.2-8.1c-12.7-5.4-23.5-12.9-32.4-22.6-9-9.7-15.9-21.3-20.8-34.9-4.9-13.6-7.4-28.5-7.4-44.8s2.6-31.2,7.7-44.8c5.1-13.6,12.3-25.2,21.7-35,9.3-9.8,20.4-17.3,33.4-22.7,13-5.4,27.3-8.1,43-8.1s29,2.5,40.7,7.4c11.8,4.9,22.1,11.6,31.1,20.1l-9.7,13.4c-.6,1-1.4,1.8-2.3,2.5-1,.7-2.2,1-3.8,1s-4-1-6.6-2.9c-2.6-2-6-4.1-10.3-6.6-4.2-2.4-9.5-4.6-15.8-6.6-6.3-2-14.1-2.9-23.4-2.9s-21.4,1.9-30.6,5.8c-9.3,3.9-17.2,9.5-23.9,16.8-6.7,7.3-11.9,16.3-15.6,26.9-3.7,10.6-5.6,22.5-5.6,35.8s1.9,25.5,5.8,36.1c3.9,10.6,9.2,19.5,15.8,26.8,6.7,7.3,14.6,12.8,23.7,16.7,9.1,3.8,18.9,5.7,29.5,5.7s12.2-.4,17.4-1.1c5.2-.8,10-1.9,14.3-3.5,4.4-1.6,8.4-3.6,12.2-6.1,3.8-2.5,7.5-5.4,11.2-8.8,1.7-1.5,3.4-2.3,5.1-2.3Z"/>
    <path class="st3" d="M1875.6,543.2h-29.3v-216.2h29.3v216.2Z"/>
    <path class="st3" d="M1949.2,327.2c.9.2,1.7.4,2.4.8.7.4,1.4.9,2.1,1.5.7.7,1.5,1.5,2.3,2.5l125.1,162.8c-.2-2.6-.4-5.2-.5-7.6-.2-2.5-.2-4.8-.2-7v-153.1h25.6v216.2h-14.6c-2.3,0-4.3-.4-5.8-1.2-1.6-.8-3.1-2.2-4.6-4.1l-125.1-162.8c.2,2.5.4,5,.5,7.4,0,2.4.2,4.6.2,6.6v154h-25.6v-216.2h15.1c1.3,0,2.4,0,3.3.2Z"/>
    <path class="st3" d="M2294.4,327v23.8h-103.9v71.8h84.2v22.9h-84.2v73.8h104.1l-.2,23.8h-133.2v-216.2h133.2Z"/>
    <path class="st3" d="M2445.3,472.7c1.1,2.7,2.2,5.3,3.3,7.9,1-2.7,2.1-5.4,3.2-8.1,1.1-2.7,2.3-5.2,3.6-7.6l73.3-132.9c1.2-2.3,2.5-3.7,4-4.2,1.5-.5,3.5-.8,6.1-.8h21.6v216.2h-25.6v-158.9c0-2.1,0-4.4.2-6.8,0-2.4.2-4.9.5-7.4l-74.1,135.2c-2.3,4.5-5.8,6.8-10.6,6.8h-4.2c-4.7,0-8.2-2.3-10.6-6.8l-75.7-135.6c.3,2.6.5,5.2.7,7.7.2,2.5.2,4.8.2,6.9v158.9h-25.6v-216.2h21.6c2.6,0,4.6.3,6,.8,1.4.5,2.8,1.9,4.1,4.2l74.7,133.1c1.2,2.4,2.4,5,3.5,7.6Z"/>
    <path class="st3" d="M2791.4,543.2h-22.6c-2.6,0-4.7-.7-6.3-2-1.6-1.3-2.8-3-3.6-5l-20.2-52.2h-97l-20.2,52.2c-.6,1.8-1.8,3.4-3.5,4.8-1.7,1.4-3.8,2.1-6.3,2.1h-22.6l86.4-216.2h29.6l86.4,216.2ZM2649.7,462.9h80.7l-33.9-88c-1.1-2.6-2.2-5.6-3.2-9.1-1.1-3.4-2.1-7.1-3.2-11-1,3.9-2,7.6-3.1,11.1-1.1,3.5-2.1,6.5-3.2,9.1l-33.9,87.8Z"/>
  </g>
</svg>